<svg width="32" height="32" viewBox="0 0 32 32" fill="none" xmlns="http://www.w3.org/2000/svg">
<g clip-path="url(#clip0)">
<path d="M31.7148 23.1562C31.6288 23.0122 31.0967 21.8561 28.5366 19.4799C25.8564 16.9917 26.2164 17.3957 29.4446 13.0934C31.4108 10.4732 32.1968 8.87311 31.9508 8.18906C31.7168 7.53701 30.2707 7.70902 30.2707 7.70902L25.4623 7.73702C25.4623 7.73702 25.1063 7.68902 24.8403 7.84703C24.5823 8.00304 24.4163 8.36307 24.4163 8.36307C24.4163 8.36307 23.6542 10.3912 22.6381 12.1153C20.496 15.7536 19.6379 15.9456 19.2879 15.7196C18.4738 15.1936 18.6778 13.6035 18.6778 12.4754C18.6778 8.94911 19.2119 7.479 17.6357 7.09897C17.1117 6.97297 16.7277 6.88896 15.3896 6.87496C13.6735 6.85696 12.2193 6.88096 11.3973 7.28299C10.8492 7.55101 10.4272 8.14905 10.6852 8.18306C11.0033 8.22506 11.7233 8.37707 12.1053 8.89711C12.5994 9.56716 12.5814 11.0753 12.5814 11.0753C12.5814 11.0753 12.8654 15.2256 11.9193 15.7416C11.2693 16.0956 10.3792 15.3736 8.46907 12.0713C7.491 10.3812 6.75095 8.51108 6.75095 8.51108C6.75095 8.51108 6.60893 8.16305 6.35492 7.97704C6.04689 7.75102 5.61486 7.67902 5.61486 7.67902L1.04252 7.70702C1.04252 7.70702 0.356473 7.72702 0.104454 8.02504C-0.119562 8.29106 0.0864529 8.8391 0.0864529 8.8391C0.0864529 8.8391 3.66672 17.2137 7.71902 21.436C11.4373 25.3063 15.6576 25.0523 15.6576 25.0523H17.5697C17.5697 25.0523 18.1478 24.9883 18.4418 24.6703C18.7138 24.3783 18.7038 23.8302 18.7038 23.8302C18.7038 23.8302 18.6658 21.264 19.8579 20.886C21.032 20.514 22.5401 23.3662 24.1382 24.4643C25.3463 25.2943 26.2644 25.1123 26.2644 25.1123L30.5387 25.0523C30.5387 25.0523 32.7749 24.9143 31.7148 23.1562Z" fill="white"/>
</g>
<defs>
<clipPath id="clip0">
<rect width="32" height="32" fill="white"/>
</clipPath>
</defs>
</svg>
