<svg width="80" height="80" viewBox="0 0 80 80" fill="none" xmlns="http://www.w3.org/2000/svg">
<path d="M17.4613 1.27948C14.3315 -0.450423 10.6567 -0.410426 7.54688 1.30448L43.9948 34.9276L56.2391 22.6833L17.4613 1.27948Z" fill="#E84141"/>
<path d="M3.90187 4.74426C3.01192 6.19918 2.50195 7.86409 2.50195 9.62899V70.3556C2.50195 72.0655 2.96693 73.6954 3.80688 75.1203L40.4598 38.4674L3.90187 4.74426Z" fill="#E84141"/>
<path d="M72.473 31.6428L60.7937 25.1981L47.6694 38.3174L63.7535 53.1515L72.478 48.3368C75.6179 46.5969 77.4978 43.4771 77.4978 39.9873C77.4928 36.4975 75.6179 33.3777 72.473 31.6428Z" fill="#E84141"/>
<path d="M44.1348 41.8572L7.38184 78.6101C8.97675 79.52 10.7266 80 12.4865 80C14.1865 80 15.8964 79.57 17.4613 78.7051L59.1439 55.7014L44.1348 41.8572Z" fill="#E84141"/>
</svg>
