<svg width="24" height="24" viewBox="0 0 24 24" fill="none" xmlns="http://www.w3.org/2000/svg">
<g clip-path="url(#clip0)">
<path d="M17.0308 23.7349C16.2854 23.7349 15.5463 23.6025 14.8235 23.3387C11.6396 22.1767 8.68418 20.2841 6.27675 17.8654C3.86932 15.4468 1.98549 12.4775 0.828904 9.27869C0.457236 8.25068 0.347553 7.1895 0.503012 6.12452C0.64864 5.12696 1.03325 4.15854 1.61531 3.32392C2.19994 2.48563 2.97936 1.78839 3.86927 1.30759C4.81826 0.794905 5.85407 0.534912 6.94802 0.534912C7.28825 0.534912 7.5823 0.773745 7.6536 1.10796L8.78624 6.41832C8.83752 6.65878 8.76396 6.90899 8.59092 7.08289L6.65554 9.02726C8.48128 12.6741 11.4438 15.6505 15.0737 17.4848L17.009 15.5403C17.1821 15.3665 17.4312 15.2927 17.6705 15.3441L22.9562 16.482C23.2889 16.5537 23.5266 16.8491 23.5266 17.1909C23.5266 18.29 23.2678 19.3307 22.7574 20.2841C22.2789 21.1782 21.5849 21.9612 20.7505 22.5486C19.9198 23.1334 18.9559 23.5198 17.9629 23.6661C17.6518 23.712 17.3407 23.7349 17.0308 23.7349V23.7349ZM6.37146 2.01657C4.92849 2.17661 3.64774 2.93647 2.79725 4.156C1.84086 5.52733 1.61784 7.21402 2.18537 8.78367C4.40898 14.9335 9.19503 19.7419 15.3163 21.9759C16.8786 22.5461 18.5574 22.3221 19.9224 21.3612C21.1363 20.5067 21.8926 19.22 22.0519 17.7703L17.752 16.8446L15.7308 18.8752C15.5157 19.0913 15.1889 19.1487 14.9137 19.0188C10.6207 16.9925 7.14564 13.5012 5.12878 9.18807C4.99947 8.91154 5.05657 8.58321 5.27165 8.36717L7.29285 6.33653L6.37146 2.01657Z" fill="white"/>
</g>
<defs>
<clipPath id="clip0">
<rect width="23.0921" height="23.2" fill="white" transform="translate(0.434082 0.534912)"/>
</clipPath>
</defs>
</svg>
