<svg width="80" height="80" viewBox="0 0 80 80" fill="none" xmlns="http://www.w3.org/2000/svg">
<path d="M63.5938 0H16.4062C7.35984 0 0 7.35984 0 16.4062V63.5938C0 72.6402 7.35984 80 16.4062 80H63.5938C72.6402 80 80 72.6402 80 63.5938V16.4062C80 7.35984 72.6402 0 63.5938 0ZM75.3125 63.5938C75.3125 70.0555 70.0555 75.3125 63.5938 75.3125H16.4062C9.94453 75.3125 4.6875 70.0555 4.6875 63.5938V16.4062C4.6875 9.94453 9.94453 4.6875 16.4062 4.6875H63.5938C70.0555 4.6875 75.3125 9.94453 75.3125 16.4062V63.5938Z" fill="#E84141"/>
<path d="M47.7572 19.3017C47.487 18.2939 46.8408 17.4514 45.9372 16.9298C44.0722 15.853 41.6784 16.4941 40.6012 18.3597L40 19.4009L39.3988 18.3595C38.3217 16.4944 35.9281 15.853 34.0628 16.9297C32.1975 18.0067 31.5561 20.4003 32.633 22.2658L35.4894 27.2133L24.9497 45.4687H17.2656C15.1117 45.4687 13.3594 47.2211 13.3594 49.375C13.3594 51.5289 15.1117 53.2812 17.2656 53.2812H46.9312L42.4206 45.4687H33.9708L47.3669 22.2659C47.8886 21.3623 48.0273 20.3095 47.7572 19.3017Z" fill="#E84141"/>
<path d="M62.7344 45.4687H55.0503L46.3148 30.3384L41.8044 38.1509L55.3675 61.6428C55.8892 62.5466 56.7314 63.193 57.7395 63.4631C58.0761 63.5533 58.4175 63.598 58.7569 63.598C59.4338 63.598 60.1019 63.4205 60.7039 63.0728C62.5692 61.9958 63.2105 59.602 62.1334 57.7369L59.5608 53.2812H62.7344C64.8883 53.2812 66.6406 51.5289 66.6406 49.375C66.6406 47.2211 64.8883 45.4687 62.7344 45.4687Z" fill="#E84141"/>
<path d="M18.635 56.4062L17.8667 57.7369C16.7898 59.6022 17.4312 61.9959 19.2966 63.0728C19.9102 63.427 20.5808 63.5955 21.2431 63.5953C22.5941 63.5953 23.9098 62.8947 24.6327 61.643L27.6561 56.4062H18.635Z" fill="#E84141"/>
</svg>
