<svg width="387" height="379" viewBox="0 0 387 379" fill="none" xmlns="http://www.w3.org/2000/svg">
<path d="M377.412 179.541C377.412 283.658 293.008 368.061 188.891 368.061C84.7743 368.061 8.79395 283.658 8.79395 179.541C8.79395 75.4237 153.594 22.3065 188.891 13.0811C293.008 13.0811 377.412 75.4237 377.412 179.541Z" fill="white"/>
<g clip-path="url(#clip0)">
<path fill-rule="evenodd" clip-rule="evenodd" d="M227.275 104.969C213.426 89.6099 190.814 83.8703 168.15 86.7805C154.927 88.4781 141.704 93.1668 130.228 100.577C118.857 107.906 109.181 117.957 102.922 130.514C93.0111 150.347 91.5245 176.673 105.06 208.766C120.97 246.518 150.884 263.278 179.991 263.521C191.649 263.629 203.229 261.069 213.713 256.192C224.172 251.314 233.535 244.093 240.889 234.823C258.911 212.081 264.753 176.781 244.515 133.02C239.82 122.915 234.004 113.484 227.275 104.969ZM166.95 76.5679C152.319 78.4541 137.688 83.6278 124.986 91.8194C112.154 100.119 101.201 111.517 94.0804 125.799C82.8918 148.218 81.0661 177.562 95.9583 212.862C113.667 254.844 147.207 273.491 179.912 273.787C193.031 273.895 206.045 271.039 217.808 265.542C229.622 260.045 240.263 251.853 248.609 241.344C268.874 215.772 275.681 176.565 253.46 128.601C248.322 117.553 241.959 107.26 234.578 97.9901V97.9632C221.146 81.1487 204.35 67.6756 185.52 59.1606C158.422 46.927 127.151 44.8521 95.6714 57.4899C92.8286 58.6486 90.0379 59.8612 87.2994 61.1816C139.722 16.0197 195.248 4.45972 243.471 14.9149C267.805 20.1694 290.286 31.0287 309.56 45.93C328.834 60.8852 344.926 79.9092 356.48 101.547C384.334 153.715 385.664 221.081 341.457 282.707C316.706 317.198 280.767 344.144 240.629 358.021C203.307 370.902 162.36 372.438 123.5 358.156C100.131 349.56 78.6667 335.818 60.7492 317.898C43.3272 300.491 29.2435 279.123 20.0892 254.79C5.6404 216.446 7.85727 176.565 22.4886 142.748C37.0939 108.957 64.1136 81.2026 99.2444 67.0828C128.116 55.469 156.753 57.3552 181.556 68.5918C187.215 71.1517 192.692 74.1966 197.908 77.6727C187.997 75.5709 177.461 75.2206 166.95 76.5679ZM13.4125 138.571C19.2024 125.179 26.818 112.676 35.9985 101.466C102.635 14.3759 180.278 -9.28287 245.506 4.83696C271.273 10.4148 295.085 21.9209 315.507 37.7383C335.928 53.5558 352.985 73.7116 365.191 96.5889C394.792 152.017 396.279 223.533 349.438 288.823C323.513 324.958 285.827 353.225 243.784 367.749C204.454 381.33 161.239 382.92 120.187 367.857C95.4888 358.776 72.7724 344.225 53.8117 325.255C35.3986 306.85 20.5325 284.27 10.8044 258.482C-4.63544 217.47 -2.236 174.787 13.4125 138.571Z" fill="#151515"/>
<path fill-rule="evenodd" clip-rule="evenodd" d="M185.988 116.853C225.422 116.853 257.371 149.7 257.371 190.227C257.371 230.728 225.422 263.575 185.988 263.575C146.58 263.575 114.605 230.728 114.605 190.227C114.605 149.7 146.58 116.853 185.988 116.853Z" fill="#E53939"/>
<path fill-rule="evenodd" clip-rule="evenodd" d="M228.891 110.278C215.407 95.296 193.369 89.745 171.305 92.5744C158.421 94.2181 145.537 98.772 134.348 105.994C123.29 113.134 113.849 122.943 107.746 135.149C98.0959 154.47 96.6614 180.123 109.832 211.38C125.35 248.135 154.483 264.491 182.832 264.734C194.178 264.815 205.471 262.336 215.694 257.566C225.866 252.824 234.994 245.791 242.166 236.764C259.719 214.614 265.404 180.231 245.661 137.602C241.097 127.739 235.437 118.551 228.891 110.278ZM170.131 82.6043C155.891 84.4366 141.625 89.4756 129.236 97.4786C116.744 105.536 106.077 116.637 99.1391 130.569C88.2373 152.395 86.4638 180.985 100.965 215.368C118.204 256.273 150.883 274.435 182.754 274.704C195.534 274.812 208.209 272.036 219.659 266.701C231.186 261.312 241.54 253.336 249.652 243.123C269.395 218.225 276.045 180.015 254.372 133.29C249.391 122.512 243.21 112.488 236.011 103.461H235.985C222.919 87.0504 206.54 73.9545 188.205 65.6551C161.811 53.7179 131.349 51.6969 100.704 64.0383C97.9394 65.1431 95.2009 66.3287 92.5407 67.6222C143.581 23.6459 197.699 12.3824 244.67 22.5411C268.378 27.6609 290.259 38.2238 309.038 52.7748C327.816 67.3258 343.49 85.8648 354.757 106.937C381.881 157.757 383.185 223.398 340.1 283.408C316.001 317.01 281.001 343.255 241.906 356.755C205.549 369.312 165.671 370.821 127.802 356.917C105.059 348.537 84.1166 335.145 66.6685 317.683C49.716 300.734 35.9975 279.932 27.0517 256.192C12.9942 218.845 15.1589 180.015 29.399 147.087C43.6391 114.158 69.9547 87.1313 104.173 73.3617C132.288 62.0712 160.194 63.9036 184.345 74.8438C189.874 77.3228 195.195 80.2869 200.281 83.6821C190.631 81.6342 180.381 81.3109 170.131 82.6043ZM20.5576 143.018C26.2172 129.976 33.6241 117.796 42.5698 106.883C107.485 22.0291 183.093 -1.00993 246.652 12.7596C271.742 18.1758 294.954 29.3854 314.827 44.7718C334.727 60.185 351.341 79.8288 363.234 102.113C392.079 156.114 393.513 225.77 347.898 289.363C322.626 324.582 285.93 352.094 244.983 366.241C206.644 379.471 164.576 381.034 124.594 366.348C100.521 357.51 78.3788 343.336 59.9136 324.851C41.9961 306.932 27.4951 284.944 18.0278 259.803C2.97915 219.868 5.30034 178.263 20.5576 143.018Z" fill="#151515"/>
</g>
<defs>
<clipPath id="clip0">
<rect width="385.866" height="378.3" fill="white" transform="translate(0.371094 0.646606)"/>
</clipPath>
</defs>
</svg>
