<svg width="387" height="379" viewBox="0 0 387 379" fill="none" xmlns="http://www.w3.org/2000/svg">
<path d="M377.412 178.894C377.412 283.011 293.008 367.415 188.891 367.415C84.7743 367.415 8.79395 283.011 8.79395 178.894C8.79395 74.7771 153.594 21.6599 188.891 12.4344C293.008 12.4344 377.412 74.7771 377.412 178.894Z" fill="white"/>
<g clip-path="url(#clip0)">
<path fill-rule="evenodd" clip-rule="evenodd" d="M227.275 104.323C213.426 88.9632 190.814 83.2237 168.15 86.1339C154.927 87.8315 141.704 92.5201 130.228 99.9304C118.857 107.26 109.181 117.311 102.922 129.868C93.0111 149.7 91.5245 176.027 105.06 208.12C120.97 245.871 150.884 262.632 179.991 262.874C191.649 262.982 203.229 260.422 213.713 255.545C224.172 250.668 233.535 243.446 240.889 234.177C258.911 211.434 264.753 176.134 244.515 132.374C239.82 122.269 234.004 112.838 227.275 104.323ZM166.95 75.9213C152.319 77.8075 137.688 82.9812 124.986 91.1728C112.154 99.4723 101.201 110.871 94.0804 125.152C82.8918 147.571 81.0661 176.916 95.9583 212.215C113.667 254.198 147.207 272.844 179.912 273.141C193.031 273.249 206.045 270.392 217.808 264.895C229.622 259.398 240.263 251.207 248.609 240.698C268.874 215.126 275.681 175.919 253.46 127.954C248.322 116.907 241.959 106.613 234.578 97.3435V97.3166C221.146 80.5021 204.35 67.029 185.52 58.514C158.422 46.2804 127.151 44.2055 95.6714 56.8433C92.8286 58.002 90.0379 59.2146 87.2994 60.535C139.722 15.3731 195.248 3.81311 243.471 14.2683C267.805 19.5228 290.286 30.3821 309.56 45.2834C328.834 60.2386 344.926 79.2626 356.48 100.9C384.334 153.068 385.664 220.434 341.457 282.06C316.706 316.551 280.767 343.497 240.629 357.375C203.307 370.255 162.36 371.791 123.5 357.51C100.131 348.914 78.6667 335.171 60.7492 317.252C43.3272 299.845 29.2435 278.476 20.0892 254.144C5.6404 215.799 7.85727 175.919 22.4886 142.101C37.0939 108.311 64.1136 80.556 99.2444 66.4362C128.116 54.8224 156.753 56.7086 181.556 67.9452C187.215 70.5051 192.692 73.55 197.908 77.0261C187.997 74.9243 177.461 74.574 166.95 75.9213ZM13.4125 137.925C19.2024 124.532 26.818 112.029 35.9985 100.82C102.635 13.7293 180.278 -9.92947 245.506 4.19036C271.273 9.76823 295.085 21.2743 315.507 37.0917C335.928 52.9092 352.985 73.065 365.191 95.9423C394.792 151.371 396.279 222.886 349.438 288.177C323.513 324.312 285.827 352.578 243.784 367.102C204.454 380.683 161.239 382.273 120.187 367.21C95.4888 358.129 72.7724 343.578 53.8117 324.608C35.3986 306.204 20.5325 283.623 10.8044 257.835C-4.63544 216.823 -2.236 174.14 13.4125 137.925Z" fill="#151515"/>
<path fill-rule="evenodd" clip-rule="evenodd" d="M185.988 116.206C225.422 116.206 257.371 149.054 257.371 189.581C257.371 230.081 225.422 262.929 185.988 262.929C146.58 262.929 114.605 230.081 114.605 189.581C114.605 149.054 146.58 116.206 185.988 116.206Z" fill="#E53939"/>
<path fill-rule="evenodd" clip-rule="evenodd" d="M228.891 109.631C215.407 94.6494 193.369 89.0984 171.305 91.9278C158.421 93.5715 145.537 98.1254 134.348 105.347C123.29 112.488 113.849 122.296 107.746 134.503C98.0959 153.823 96.6614 179.476 109.832 210.734C125.35 247.488 154.483 263.845 182.832 264.087C194.178 264.168 205.471 261.689 215.694 256.92C225.866 252.177 234.994 245.144 242.166 236.117C259.719 213.967 265.404 179.584 245.661 136.955C241.097 127.093 235.437 117.904 228.891 109.631ZM170.131 81.9577C155.891 83.79 141.625 88.829 129.236 96.832C116.744 104.889 106.077 115.991 99.1391 129.922C88.2373 151.748 86.4638 180.338 100.965 214.722C118.204 255.626 150.883 273.788 182.754 274.057C195.534 274.165 208.209 271.39 219.659 266.054C231.186 260.665 241.54 252.689 249.652 242.476C269.395 217.578 276.045 179.368 254.372 132.644C249.391 121.865 243.21 111.841 236.011 102.814H235.985C222.919 86.4038 206.54 73.3079 188.205 65.0085C161.811 53.0713 131.349 51.0503 100.704 63.3917C97.9394 64.4965 95.2009 65.6821 92.5407 66.9756C143.581 22.9993 197.699 11.7358 244.67 21.8945C268.378 27.0143 290.259 37.5772 309.038 52.1282C327.816 66.6792 343.49 85.2182 354.757 106.29C381.881 157.111 383.185 222.752 340.1 282.761C316.001 316.363 281.001 342.609 241.906 356.109C205.549 368.666 165.671 370.175 127.802 356.271C105.059 347.89 84.1166 334.498 66.6685 317.037C49.716 300.088 35.9975 279.285 27.0517 255.545C12.9942 218.198 15.1589 179.368 29.399 146.44C43.6391 113.512 69.9547 86.4846 104.173 72.7151C132.288 61.4246 160.194 63.257 184.345 74.1972C189.874 76.6762 195.195 79.6403 200.281 83.0355C190.631 80.9876 180.381 80.6643 170.131 81.9577ZM20.5576 142.371C26.2172 129.329 33.6241 117.149 42.5698 106.236C107.485 21.3825 183.093 -1.65653 246.652 12.113C271.742 17.5292 294.954 28.7388 314.827 44.1251C334.727 59.5384 351.341 79.1822 363.234 101.467C392.079 155.467 393.513 225.123 347.898 288.716C322.626 323.935 285.93 351.447 244.983 365.594C206.644 378.825 164.576 380.387 124.594 365.702C100.521 356.863 78.3788 342.69 59.9136 324.204C41.9961 306.285 27.4951 284.297 18.0278 259.156C2.97915 219.222 5.30034 177.617 20.5576 142.371Z" fill="#151515"/>
</g>
<defs>
<clipPath id="clip0">
<rect width="385.866" height="378.3" fill="white" transform="translate(0.371094)"/>
</clipPath>
</defs>
</svg>
