<svg width="50" height="50" viewBox="0 0 50 50" fill="none" xmlns="http://www.w3.org/2000/svg">
<g clip-path="url(#clip0)">
<path fill-rule="evenodd" clip-rule="evenodd" d="M28.8555 14.2975C27.0943 12.3352 24.2187 11.6018 21.3365 11.9737C19.6549 12.1906 17.9734 12.7896 16.514 13.7364C15.0679 14.6728 13.8374 15.957 13.0414 17.5613C11.7811 20.0952 11.592 23.4588 13.3134 27.5591C15.3366 32.3825 19.1408 34.5239 22.8423 34.5548C24.3249 34.5686 25.7975 34.2416 27.1308 33.6184C28.4608 32.9953 29.6515 32.0726 30.5868 30.8883C32.8787 27.9826 33.6216 23.4725 31.0478 17.8815C30.4508 16.5904 29.7112 15.3855 28.8555 14.2975V14.2975ZM21.1839 10.6689C19.3233 10.9098 17.4626 11.5709 15.8474 12.6175C14.2155 13.6778 12.8225 15.1341 11.9171 16.9588C10.4942 19.8232 10.262 23.5724 12.1559 28.0824C14.4079 33.4463 18.6732 35.8287 22.8323 35.8665C24.5006 35.8803 26.1557 35.5154 27.6515 34.8131C29.154 34.1107 30.5072 33.0641 31.5686 31.7214C34.1456 28.4542 35.0113 23.445 32.1855 17.3169C31.5321 15.9053 30.7228 14.5902 29.7842 13.4059V13.4024C28.0761 11.2541 25.9401 9.53274 23.5454 8.44482C20.0994 6.8818 16.1226 6.6167 12.1194 8.23137C11.7579 8.37941 11.403 8.53433 11.0547 8.70303C17.7213 2.93293 24.7826 1.45598 30.9152 2.79178C34.0097 3.46312 36.8687 4.85056 39.3197 6.75441C41.7708 8.66516 43.8172 11.0958 45.2865 13.8603C48.8287 20.5255 48.9979 29.1325 43.376 37.0061C40.2285 41.4129 35.6581 44.8556 30.5536 46.6287C25.8074 48.2743 20.6002 48.4705 15.6583 46.6459C12.6865 45.5476 9.95688 43.7918 7.6783 41.5024C5.46274 39.2783 3.67171 36.5482 2.50755 33.4394C0.670092 28.5403 0.952012 23.445 2.81269 19.1243C4.67004 14.8071 8.10615 11.261 12.5738 9.45699C16.2454 7.97316 19.8871 8.21415 23.0413 9.64979C23.761 9.97685 24.4575 10.3659 25.1209 10.81C23.8605 10.5415 22.5206 10.4967 21.1839 10.6689V10.6689ZM1.65847 18.5907C2.39478 16.8796 3.36326 15.2822 4.53074 13.85C13.0049 2.72292 22.8788 -0.299838 31.1739 1.50418C34.4508 2.21683 37.4789 3.6869 40.0759 5.70781C42.6729 7.72872 44.842 10.3039 46.3943 13.2268C50.1587 20.3086 50.3478 29.4458 44.391 37.7876C41.0941 42.4044 36.3015 46.0158 30.955 47.8715C25.9534 49.6067 20.4576 49.8098 15.2371 47.8853C12.0962 46.7251 9.2073 44.866 6.79605 42.4422C4.45446 40.0908 2.56393 37.2058 1.3268 33.911C-0.636692 28.6711 -0.331554 23.2178 1.65847 18.5907V18.5907Z" fill="#FEFEFE"/>
<path fill-rule="evenodd" clip-rule="evenodd" d="M23.6052 15.8153C28.62 15.8153 32.683 20.0121 32.683 25.19C32.683 30.3645 28.62 34.5612 23.6052 34.5612C18.5936 34.5612 14.5273 30.3645 14.5273 25.19C14.5273 20.0121 18.5936 15.8153 23.6052 15.8153V15.8153Z" fill="#FEFEFE"/>
<path fill-rule="evenodd" clip-rule="evenodd" d="M29.0611 14.9752C27.3464 13.0611 24.5438 12.3518 21.7378 12.7133C20.0994 12.9233 18.4609 13.5052 17.038 14.4278C15.6318 15.3402 14.4311 16.5934 13.655 18.1529C12.4278 20.6214 12.2454 23.8989 13.9203 27.8925C15.8938 32.5885 19.5985 34.6783 23.2038 34.7092C24.6466 34.7196 26.0827 34.4028 27.3829 33.7935C28.6764 33.1875 29.8372 32.289 30.7493 31.1356C32.9815 28.3057 33.7045 23.9127 31.1938 18.4662C30.6133 17.2062 29.8936 16.0322 29.0611 14.9752V14.9752ZM21.5886 11.4395C19.7777 11.6736 17.9634 12.3174 16.388 13.3399C14.7993 14.3693 13.4427 15.7877 12.5605 17.5677C11.1741 20.3563 10.9486 24.0091 12.7927 28.4021C14.985 33.6282 19.1408 35.9486 23.1939 35.9831C24.8191 35.9968 26.431 35.6422 27.887 34.9606C29.353 34.272 30.6697 33.253 31.7012 31.9481C34.212 28.767 35.0577 23.8852 32.3016 17.9154C31.6681 16.5383 30.882 15.2576 29.9666 14.1042H29.9633C28.3016 12.0076 26.2187 10.3344 23.8871 9.274C20.5305 7.74885 16.6566 7.49065 12.7595 9.06744C12.4079 9.20859 12.0597 9.36007 11.7214 9.52533C18.2122 3.90671 25.0943 2.46763 31.0677 3.76556C34.0826 4.41969 36.8653 5.76926 39.2534 7.62836C41.6414 9.48746 43.6348 11.8561 45.0676 14.5483C48.517 21.0414 48.6828 29.428 43.2036 37.0951C40.1389 41.3882 35.6879 44.7415 30.7162 46.4663C26.0927 48.0707 21.0214 48.2635 16.2056 46.487C13.3134 45.4163 10.6501 43.7052 8.43119 41.4743C6.27533 39.3088 4.53074 36.651 3.3931 33.6179C1.6054 28.8462 1.88068 23.8852 3.69161 19.6781C5.50253 15.471 8.84909 12.0179 13.2006 10.2586C16.776 8.81612 20.3249 9.05022 23.3962 10.448C24.0993 10.7647 24.7759 11.1434 25.4227 11.5772C24.1955 11.3156 22.892 11.2743 21.5886 11.4395ZM2.56724 19.1582C3.28697 17.4919 4.22892 15.9358 5.36655 14.5415C13.6218 3.70015 23.237 0.756572 31.3198 2.51583C34.5105 3.20783 37.4624 4.64003 39.9897 6.60585C42.5203 8.57512 44.6331 11.0849 46.1455 13.9321C49.8138 20.8314 49.9962 29.731 44.1953 37.8559C40.9814 42.3557 36.3148 45.8707 31.1075 47.6782C26.232 49.3686 20.8821 49.5683 15.7976 47.692C12.7363 46.5627 9.92039 44.7518 7.57216 42.3901C5.29358 40.1006 3.44949 37.2913 2.24552 34.0792C0.33178 28.977 0.626967 23.6614 2.56724 19.1582V19.1582Z" fill="#FEFEFE"/>
</g>
<defs>
<clipPath id="clip0">
<rect width="49.0707" height="48.3333" fill="white" transform="translate(0 0.96814)"/>
</clipPath>
</defs>
</svg>
