<svg width="455" height="556" viewBox="0 0 455 556" fill="none" xmlns="http://www.w3.org/2000/svg">
<path d="M99.3554 504.473H87.5483C87.5483 495.137 86.8993 481.634 85.6014 463.965C84.3035 446.296 83.6126 435.703 83.5289 432.186H82.9008C78.7139 445.794 73.3966 460.574 66.9487 476.526C60.5427 492.436 57.3398 501.752 57.3398 504.473H48.8613C48.8613 501.543 45.8676 492.059 39.8803 476.023C33.893 459.946 30.1039 449.185 28.5129 443.742C26.9218 438.299 25.8332 434.447 25.2471 432.186H24.619C24.4934 437.922 23.656 449.499 22.1069 466.917C20.5996 484.334 19.846 496.853 19.846 504.473H9.04373C9.04373 504.055 10.4673 492.541 13.3144 469.931C16.1615 447.28 17.585 431.537 17.585 422.703H34.1024C34.1024 427.309 37.4519 438.823 44.151 457.245C50.85 475.667 54.1996 486.826 54.1996 490.719H54.8276C54.8276 486.826 58.5958 475.647 66.1323 457.182C73.6687 438.676 77.4369 427.183 77.4369 422.703H93.5775C93.5775 431.537 94.5405 447.197 96.4664 469.68C98.3924 492.164 99.3554 503.762 99.3554 504.473ZM188.348 504.473H175.097C175.097 501.668 172.459 492.855 167.183 478.033H130.946C125.754 492.645 123.158 501.459 123.158 504.473H110.472C110.472 502.924 115.873 489.547 126.675 464.342C137.477 439.095 142.878 425.215 142.878 422.703H157.449C157.449 425.173 162.599 438.844 172.899 463.714C183.198 488.584 188.348 502.171 188.348 504.473ZM164.294 469.806C154.455 445.229 149.536 432.165 149.536 430.616H148.845C148.845 431.914 143.758 444.977 133.583 469.806H164.294ZM263.775 504.473H250.021C250.021 504.013 247.635 500.37 242.862 493.546C237.335 485.632 232.29 479.101 227.726 473.951C221.529 466.959 216.945 463.463 213.972 463.463H212.025C212.025 473.26 212.235 486.93 212.653 504.473H200.846C201.474 491.494 201.788 477.175 201.788 461.516C201.788 446.778 201.474 433.84 200.846 422.703H212.653C212.235 433.84 212.025 445.145 212.025 456.617H213.47C215.772 456.617 221.509 451.279 230.678 440.602C239.889 429.925 244.495 423.959 244.495 422.703H257.558C257.558 423.959 253.078 429.151 244.118 438.278C235.2 447.364 228.563 453.477 224.209 456.617V457.245C229.024 459.087 237.042 467.398 248.263 482.178C258.605 495.786 263.775 503.217 263.775 504.473ZM288.897 504.473H276.964C277.592 490.908 277.906 476.589 277.906 461.516C277.906 446.694 277.592 433.757 276.964 422.703H288.897C288.311 434.133 288.018 447.071 288.018 461.516C288.018 476.672 288.311 490.992 288.897 504.473ZM360.242 483.309C360.242 498.8 349.461 506.546 327.898 506.546C320.027 506.546 313.034 505.646 306.922 503.845L309.12 493.985C316.154 496.414 322.832 497.628 329.154 497.628C343.39 497.628 350.507 493.608 350.507 485.57C350.507 481.508 348.665 478.033 344.981 475.144C342.51 473.218 337.653 470.643 330.41 467.419C322.79 464.028 317.452 460.909 314.395 458.062C310.166 454.126 308.052 449.185 308.052 443.24C308.052 437.043 310.208 431.998 314.521 428.104C319.336 423.75 326.139 421.573 334.932 421.573C344.897 421.573 351.721 422.222 355.406 423.52L353.899 433.505C347.535 431.496 340.773 430.491 333.613 430.491C322.853 430.491 317.473 434.091 317.473 441.293C317.473 444.768 319.022 447.678 322.12 450.023C324.13 451.488 328.568 453.707 335.434 456.68C343.264 460.071 348.916 463.295 352.391 466.352C357.625 470.957 360.242 476.61 360.242 483.309ZM443.896 422.703C443.729 430.616 443.603 438.006 443.52 444.873C443.436 451.739 443.394 458.145 443.394 464.091C443.394 492.143 432.32 506.169 410.171 506.169C404.393 506.169 399.431 505.353 395.286 503.72C391.183 502.045 387.792 499.512 385.112 496.121C382.474 492.687 380.527 488.375 379.271 483.183C378.057 477.991 377.45 471.857 377.45 464.782C377.45 458.585 377.408 452.011 377.324 445.061C377.241 438.069 377.115 430.616 376.948 422.703H388.88C388.378 438.655 388.127 451.153 388.127 460.197C388.127 467.482 388.483 473.428 389.194 478.033C389.906 482.597 391.162 486.407 392.963 489.463C394.805 492.52 397.108 494.697 399.871 495.995C402.634 497.251 406.151 497.879 410.422 497.879C414.902 497.879 418.545 497.251 421.35 495.995C424.155 494.697 426.437 492.583 428.195 489.652C429.954 486.679 431.21 482.89 431.964 478.284C432.717 473.637 433.094 467.566 433.094 460.071C433.094 455.633 433.01 450.337 432.843 444.182C432.717 437.985 432.508 430.826 432.215 422.703H443.896Z" fill="black"/>
<g filter="url(#filter0_d)">
<path d="M412.412 198.541C412.412 302.658 328.008 387.061 223.891 387.061C119.774 387.061 43.7939 302.658 43.7939 198.541C43.7939 94.4237 188.594 41.3065 223.891 32.0811C328.008 32.0811 412.412 94.4237 412.412 198.541Z" fill="white"/>
<g clip-path="url(#clip0)">
<path fill-rule="evenodd" clip-rule="evenodd" d="M262.275 123.969C248.426 108.61 225.814 102.87 203.15 105.781C189.927 107.478 176.704 112.167 165.228 119.577C153.857 126.906 144.181 136.957 137.922 149.514C128.011 169.347 126.525 195.673 140.06 227.766C155.97 265.518 185.884 282.278 214.991 282.521C226.649 282.629 238.229 280.069 248.713 275.192C259.172 270.314 268.535 263.093 275.889 253.823C293.911 231.081 299.753 195.781 279.515 152.02C274.82 141.915 269.004 132.484 262.275 123.969V123.969ZM201.95 95.5679C187.319 97.4541 172.688 102.628 159.986 110.819C147.154 119.119 136.201 130.517 129.08 144.799C117.892 167.218 116.066 196.562 130.958 231.862C148.667 273.844 182.207 292.491 214.912 292.787C228.031 292.895 241.045 290.039 252.808 284.542C264.622 279.045 275.263 270.853 283.609 260.344C303.874 234.772 310.681 195.565 288.46 147.601C283.322 136.553 276.959 126.26 269.578 116.99V116.963C256.146 100.149 239.35 86.6756 220.52 78.1606C193.422 65.927 162.151 63.8521 130.671 76.4899C127.829 77.6486 125.038 78.8612 122.299 80.1816C174.722 35.0197 230.248 23.4597 278.471 33.9149C302.805 39.1694 325.286 50.0287 344.56 64.93C363.834 79.8852 379.926 98.9092 391.48 120.547C419.334 172.715 420.664 240.081 376.457 301.707C351.706 336.198 315.767 363.144 275.629 377.021C238.307 389.902 197.36 391.438 158.5 377.156C135.131 368.56 113.667 354.818 95.7492 336.898C78.3272 319.491 64.2435 298.123 55.0892 273.79C40.6404 235.446 42.8573 195.565 57.4886 161.748C72.0939 127.957 99.1136 100.203 134.244 86.0828C163.116 74.469 191.753 76.3552 216.556 87.5918C222.215 90.1517 227.692 93.1966 232.908 96.6727C222.997 94.5709 212.461 94.2206 201.95 95.5679V95.5679ZM48.4125 157.571C54.2024 144.179 61.818 131.676 70.9985 120.466C137.635 33.3759 215.278 9.71713 280.506 23.837C306.274 29.4148 330.085 40.9209 350.507 56.7383C370.928 72.5558 387.985 92.7116 400.191 115.589C429.792 171.017 431.279 242.533 384.438 307.823C358.513 343.958 320.827 372.225 278.784 386.749C239.454 400.33 196.239 401.92 155.187 386.857C130.489 377.776 107.772 363.225 88.8117 344.255C70.3986 325.851 55.5325 303.27 45.8044 277.482C30.3646 236.47 32.764 193.787 48.4125 157.571V157.571Z" fill="#151515"/>
<path fill-rule="evenodd" clip-rule="evenodd" d="M220.988 135.853C260.422 135.853 292.371 168.7 292.371 209.227C292.371 249.728 260.422 282.575 220.988 282.575C181.58 282.575 149.605 249.728 149.605 209.227C149.605 168.7 181.58 135.853 220.988 135.853Z" fill="#E53939"/>
<path fill-rule="evenodd" clip-rule="evenodd" d="M263.891 129.278C250.407 114.296 228.369 108.745 206.305 111.574C193.421 113.218 180.537 117.772 169.348 124.994C158.29 132.134 148.849 141.943 142.746 154.149C133.096 173.47 131.661 199.123 144.832 230.38C160.35 267.135 189.483 283.491 217.832 283.734C229.178 283.815 240.471 281.336 250.694 276.566C260.866 271.824 269.994 264.791 277.166 255.764C294.719 233.614 300.404 199.231 280.661 156.602C276.097 146.739 270.437 137.551 263.891 129.278V129.278ZM205.131 101.604C190.891 103.437 176.625 108.476 164.236 116.479C151.744 124.536 141.077 135.637 134.139 149.569C123.237 171.395 121.464 199.985 135.965 234.368C153.204 275.273 185.883 293.435 217.754 293.704C230.534 293.812 243.209 291.036 254.659 285.701C266.186 280.312 276.54 272.336 284.652 262.123C304.395 237.225 311.045 199.015 289.372 152.29C284.391 141.512 278.21 131.488 271.011 122.461H270.985C257.919 106.05 241.54 92.9545 223.205 84.6551C196.811 72.7179 166.349 70.6969 135.704 83.0383C132.939 84.1431 130.201 85.3287 127.541 86.6222C178.581 42.6459 232.699 31.3824 279.67 41.5411C303.378 46.6609 325.259 57.2238 344.038 71.7748C362.816 86.3258 378.49 104.865 389.757 125.937C416.881 176.757 418.185 242.398 375.1 302.408C351.001 336.01 316.001 362.255 276.906 375.755C240.549 388.312 200.671 389.821 162.802 375.917C140.059 367.537 119.117 354.145 101.669 336.683C84.716 319.734 70.9975 298.932 62.0517 275.192C47.9942 237.845 50.1589 199.015 64.399 166.087C78.6391 133.158 104.955 106.131 139.173 92.3617C167.288 81.0712 195.194 82.9036 219.345 93.8438C224.874 96.3228 230.195 99.2869 235.281 102.682C225.631 100.634 215.381 100.311 205.131 101.604ZM55.5576 162.018C61.2172 148.976 68.6241 136.796 77.5698 125.883C142.485 41.0291 218.093 17.9901 281.652 31.7596C306.742 37.1758 329.954 48.3854 349.827 63.7718C369.727 79.185 386.341 98.8288 398.234 121.113C427.079 175.114 428.513 244.77 382.898 308.363C357.626 343.582 320.93 371.094 279.983 385.241C241.644 398.471 199.576 400.034 159.594 385.348C135.521 376.51 113.379 362.336 94.9136 343.851C76.9961 325.932 62.4951 303.944 53.0278 278.803C37.9791 238.868 40.3003 197.263 55.5576 162.018V162.018Z" fill="#151515"/>
</g>
</g>
<defs>
<filter id="filter0_d" x="11.3046" y="0.393432" width="433.999" height="426.433" filterUnits="userSpaceOnUse" color-interpolation-filters="sRGB">
<feFlood flood-opacity="0" result="BackgroundImageFix"/>
<feColorMatrix in="SourceAlpha" type="matrix" values="0 0 0 0 0 0 0 0 0 0 0 0 0 0 0 0 0 0 127 0"/>
<feOffset dy="4.81329"/>
<feGaussianBlur stdDeviation="12.0332"/>
<feColorMatrix type="matrix" values="0 0 0 0 0.631373 0 0 0 0 0 0 0 0 0 0 0 0 0 0.3 0"/>
<feBlend mode="normal" in2="BackgroundImageFix" result="effect1_dropShadow"/>
<feBlend mode="normal" in="SourceGraphic" in2="effect1_dropShadow" result="shape"/>
</filter>
<clipPath id="clip0">
<rect width="385.866" height="378.3" fill="white" transform="translate(35.3711 19.6466)"/>
</clipPath>
</defs>
</svg>
