<svg width="300" height="159" viewBox="0 0 300 159" fill="none" xmlns="http://www.w3.org/2000/svg">
<g clip-path="url(#clip0)">
<path d="M86.4286 105.248L55.0307 103.23L43.1805 73.6065L31.3302 103.23L0 105.248L24.0378 125.636L16.1377 156.521L43.1805 139.464L70.2233 156.521L62.3231 125.636L86.4286 105.248Z" fill="#FFD400"/>
<path d="M62.3233 125.636L70.2234 156.521L43.1807 139.464V73.6065L55.0308 103.23L86.4287 105.248L62.3233 125.636Z" fill="#FDBF00"/>
</g>
<g clip-path="url(#clip1)">
<path d="M192.857 105.248L161.459 103.23L149.609 73.6065L137.759 103.23L106.429 105.248L130.467 125.636L122.566 156.521L149.609 139.464L176.652 156.521L168.752 125.636L192.857 105.248Z" fill="#FFD400"/>
<path d="M168.752 125.636L176.652 156.521L149.609 139.464V73.6065L161.46 103.23L192.857 105.248L168.752 125.636Z" fill="#FDBF00"/>
</g>
<g clip-path="url(#clip2)">
<path d="M299.286 105.248L267.888 103.23L256.038 73.6065L244.188 103.23L212.857 105.248L236.895 125.636L228.995 156.521L256.038 139.464L283.081 156.521L275.181 125.636L299.286 105.248Z" fill="#FFD400"/>
<path d="M275.181 125.636L283.081 156.521L256.038 139.464V73.6065L267.888 103.23L299.286 105.248L275.181 125.636Z" fill="#FDBF00"/>
</g>
<g clip-path="url(#clip3)">
<path d="M246.858 33.2485L215.46 31.2297L203.61 1.60651L191.759 31.2297L160.429 33.2485L184.467 53.6364L176.567 84.5212L203.61 67.4639L230.652 84.5212L222.752 53.6364L246.858 33.2485Z" fill="#FFD400"/>
<path d="M222.752 53.6364L230.652 84.5212L203.609 67.4639V1.60651L215.46 31.2297L246.857 33.2485L222.752 53.6364Z" fill="#FDBF00"/>
</g>
<g clip-path="url(#clip4)">
<path d="M140.429 33.2486L109.031 31.2298L97.1805 1.60657L85.3302 31.2298L54 33.2486L78.0378 53.6364L70.1377 84.5213L97.1805 67.464L124.223 84.5213L116.323 53.6364L140.429 33.2486Z" fill="#FFD400"/>
<path d="M116.323 53.6364L124.223 84.5213L97.1802 67.464V1.60657L109.03 31.2298L140.428 33.2486L116.323 53.6364Z" fill="#FDBF00"/>
</g>
<defs>
<clipPath id="clip0">
<rect width="86.4286" height="86.1277" fill="white" transform="translate(0 72)"/>
</clipPath>
<clipPath id="clip1">
<rect width="86.4286" height="86.1277" fill="white" transform="translate(106.429 72)"/>
</clipPath>
<clipPath id="clip2">
<rect width="86.4286" height="86.1277" fill="white" transform="translate(212.857 72)"/>
</clipPath>
<clipPath id="clip3">
<rect width="86.4286" height="86.1277" fill="white" transform="translate(160.429)"/>
</clipPath>
<clipPath id="clip4">
<rect width="86.4286" height="86.1277" fill="white" transform="translate(54)"/>
</clipPath>
</defs>
</svg>
